<?xml version="1.0" encoding="utf-8"?>
<!-- Generator: Adobe Illustrator 24.1.2, SVG Export Plug-In . SVG Version: 6.00 Build 0)  -->
<svg version="1.1" id="Clouds" xmlns="http://www.w3.org/2000/svg" xmlns:xlink="http://www.w3.org/1999/xlink" x="0px" y="0px"
	 viewBox="0 0 874 250" style="enable-background:new 0 0 874 250;" xml:space="preserve">
<style type="text/css">
	.st0{fill:#FFFFFF;}
</style>
<g>
	<path class="st0" d="M874,250l0.14-55.07c-0.63-9.64-20.61-48.03-51.58-48.03c-17.5,0-32.82,9.31-41.07,23.37
		c-7.54-5.19-16.66-8.25-26.51-8.31c-4.98-0.03-9.77,0.71-14.29,2.11c-6.43-26.11-29.95-45.56-58.12-45.72
		c-9.37-0.05-18.25,2.03-26.18,5.8c-5.27-34.17-34.74-60.43-70.47-60.63c-32.06-0.19-59.33,20.66-68.68,49.59
		c-8.33-6.72-18.91-10.78-30.45-10.85c-17.7-0.1-33.26,9.19-41.94,23.18c-7.37-3.37-15.55-5.29-24.18-5.34
		c-16.1-0.09-30.73,6.28-41.43,16.67c-7.91-13.89-22.81-23.29-39.95-23.39c-18.6-0.11-34.69,10.77-42.12,26.53
		c-3.53-0.89-7.22-1.37-11.02-1.4c-7.73-0.04-15.02,1.82-21.44,5.13c-7.28-18.6-25.31-31.82-46.5-31.95
		c-15.86-0.09-30.04,7.18-39.32,18.61c-5.96-2.82-12.62-4.43-19.65-4.47c-7.12-0.04-13.86,1.52-19.91,4.33
		c-7.92-11.49-21.13-19.06-36.14-19.15c-5.79-0.03-11.32,1.06-16.39,3.05c-10.91-31.22-40.52-53.69-75.48-53.9
		c-3.51-0.02-6.09,0-11.32,3.16L-0.14,250H874z"/>
</g>
</svg>
