<svg width="52" height="52" viewBox="0 0 52 52" fill="none" xmlns="http://www.w3.org/2000/svg">
<rect width="52" height="52" rx="10" fill="#240CF2"/>
<path d="M23 33V27C23 26.7348 22.8946 26.4804 22.7071 26.2929C22.5196 26.1054 22.2652 26 22 26H18C17.7348 26 17.4804 26.1054 17.2929 26.2929C17.1054 26.4804 17 26.7348 17 27V33C17 33.2652 17.1054 33.5196 17.2929 33.7071C17.4804 33.8946 17.7348 34 18 34M23 33C23 33.2652 22.8946 33.5196 22.7071 33.7071C22.5196 33.8946 22.2652 34 22 34H18M23 33C23 33.2652 23.1054 33.5196 23.2929 33.7071C23.4804 33.8946 23.7348 34 24 34H28C28.2652 34 28.5196 33.8946 28.7071 33.7071C28.8946 33.5196 29 33.2652 29 33M23 33V23C23 22.7348 23.1054 22.4804 23.2929 22.2929C23.4804 22.1054 23.7348 22 24 22H28C28.2652 22 28.5196 22.1054 28.7071 22.2929C28.8946 22.4804 29 22.7348 29 23V33M18 34H32M29 33C29 33.2652 29.1054 33.5196 29.2929 33.7071C29.4804 33.8946 29.7348 34 30 34H34C34.2652 34 34.5196 33.8946 34.7071 33.7071C34.8946 33.5196 35 33.2652 35 33V19C35 18.7348 34.8946 18.4804 34.7071 18.2929C34.5196 18.1054 34.2652 18 34 18H30C29.7348 18 29.4804 18.1054 29.2929 18.2929C29.1054 18.4804 29 18.7348 29 19V33Z" stroke="white" stroke-width="2" stroke-linecap="round" stroke-linejoin="round"/>
</svg>
